<?xml version="1.0" encoding="utf-8"?>
<!-- Generator: Adobe Illustrator 21.0.0, SVG Export Plug-In . SVG Version: 6.00 Build 0)  -->
<svg version="1.1" id="Layer_1" xmlns="http://www.w3.org/2000/svg" xmlns:xlink="http://www.w3.org/1999/xlink" x="0px" y="0px"
	 viewBox="0 0 455 189.4" style="enable-background:new 0 0 455 189.4;" xml:space="preserve">
<style type="text/css">
	.st0{fill:#49B1E4;}
</style>
<g>
	<path class="st0" d="M35.9,59l23.4,57.4H47.2l-5.7-14.2H17.1l-5.6,14.2H0L23.2,59H35.9z M20.5,93.5H38L29.4,72H29L20.5,93.5z"/>
	<path class="st0" d="M91.5,108.8c-1.8,4.8-6.7,8.8-13.9,8.8c-11.9,0-18.1-9.3-18.1-21.1c0-11.9,6.2-21.2,18.1-21.2
		c7.1,0,12,3.9,13.9,8.8V59h10.9v57.4H91.5V108.8z M91.6,95.6c0-7.3-4.5-11.9-10.7-11.9c-6.8,0-10.4,5-10.4,12.7
		c0,7.6,3.6,12.6,10.4,12.6c6.2,0,10.7-4.5,10.7-11.9V95.6z"/>
	<polygon class="st0" points="121.8,116.5 105.9,76.3 117.4,76.3 128.1,104.4 128.4,104.4 139,76.3 149.7,76.3 133.8,116.5 	"/>
	<path class="st0" d="M153,59.1h11.2v10.7H153V59.1z M164.1,116.5h-10.9V76.3h10.9V116.5z"/>
	<path class="st0" d="M178.7,102.8c0.6,4.8,4.3,7.3,9.8,7.3c4,0,7.3-1.4,7.3-4.3c0-2.7-1.8-3.9-5.8-4.5l-6.4-1.1
		c-8.6-1.4-13.3-4.6-13.3-12c0-7.7,6.5-12.9,16.7-12.9c11.1,0,17.8,5,18.5,13.9l-9,0.4c-0.7-4.6-3.8-6.8-9.6-6.8
		c-3.9,0-6.5,1.7-6.5,4.5c0,2.2,1.5,3.5,4.4,3.9l7.7,1.3c8.5,1.4,13.5,4.9,13.5,12.5c0,8.2-7.1,12.8-17.5,12.8
		c-10.5,0-18.5-4.6-19.2-14.4L178.7,102.8z"/>
	<path class="st0" d="M249.9,103.4c-2.1,8.9-9,14.2-19.3,14.2c-12.4,0-21.3-7.9-21.3-20.6c0-12.7,9-21.8,21.1-21.8
		c13.1,0,19.9,9.1,19.9,20.1v3.9H220c0.4,5.9,5,10.1,10.9,10.1c5.4,0,8.6-2.3,10.1-6.8L249.9,103.4z M239.5,92.3
		c-0.4-4.7-3.2-9.1-9.3-9.1c-6,0-9,4.1-10,9.1H239.5z"/>
	<path class="st0" d="M283.1,117.6c-16.8,0-29.2-12.1-29.2-29.8c0-17.7,12.4-29.8,29.2-29.8c16.7,0,29.1,12.1,29.1,29.8
		C312.2,105.5,299.8,117.6,283.1,117.6 M283.1,68c-10.6,0-17.3,7.7-17.3,19.8c0,12,6.7,19.8,17.3,19.8c10.6,0,17.3-7.8,17.3-19.8
		C300.5,75.7,293.7,68,283.1,68"/>
	<path class="st0" d="M329.6,116.5h-10.9V76.3h10.9v6.6c2-4.6,7.1-7.7,13.1-7.7c10.8,0,14.7,7.3,14.7,16.2v25.1h-10.9V93.6
		c0-6.2-2.5-9.8-7.8-9.8c-5.6,0-9,4.4-9,11.1V116.5z"/>
	<rect x="364.9" y="59.1" class="st0" width="10.9" height="57.4"/>
	<polygon class="st0" points="389.7,131.4 395.9,116.7 379.2,76.3 390.7,76.3 401.6,103.7 402,103.7 412.8,76.3 423.5,76.3 
		400.4,131.4 	"/>
	<path class="st0" d="M438.8,80.5h-12V70c0-7.6,3.4-11.2,12-11.4v5.6c-3.9,0.2-5.5,1.4-5.6,5.2h5.6V80.5z M455,80.5h-11.9V70
		c0-7.6,3.4-11.2,11.9-11.4v5.6c-3.8,0.2-5.5,1.4-5.5,5.2h5.5V80.5z"/>
</g>
</svg>
