<?xml version="1.0" encoding="utf-8"?>
<!-- Generator: Adobe Illustrator 21.0.0, SVG Export Plug-In . SVG Version: 6.00 Build 0)  -->
<svg version="1.1" id="Layer_1" xmlns="http://www.w3.org/2000/svg" xmlns:xlink="http://www.w3.org/1999/xlink" x="0px" y="0px"
	 viewBox="0 0 600 600" style="enable-background:new 0 0 600 600;" xml:space="preserve">
<style type="text/css">
	.st0{fill:#49B1E4;}
	.st1{fill:#FFFFFF;}
</style>
<rect class="st0" width="600" height="600"/>
<g>
	<path class="st1" d="M108.4,264.3l23.4,57.4h-12.1l-5.7-14.2H89.6L84,321.8H72.5l23.2-57.4H108.4z M93,298.8h17.5l-8.7-21.5h-0.4
		L93,298.8z"/>
	<path class="st1" d="M164,314.1c-1.8,4.8-6.7,8.8-13.9,8.8c-11.9,0-18.1-9.3-18.1-21.1c0-11.9,6.2-21.2,18.1-21.2
		c7.1,0,12,3.9,13.9,8.8v-25H175v57.4H164V314.1z M164.1,300.9c0-7.3-4.5-11.9-10.7-11.9c-6.8,0-10.4,5-10.4,12.7
		c0,7.6,3.6,12.6,10.4,12.6c6.2,0,10.7-4.5,10.7-11.9V300.9z"/>
	<polygon class="st1" points="194.3,321.8 178.4,281.6 189.9,281.6 200.6,309.7 200.9,309.7 211.5,281.6 222.2,281.6 206.3,321.8 	
		"/>
	<path class="st1" d="M225.5,264.4h11.2V275h-11.2V264.4z M236.6,321.8h-10.9v-40.2h10.9V321.8z"/>
	<path class="st1" d="M251.2,308.1c0.6,4.8,4.3,7.3,9.8,7.3c4,0,7.3-1.4,7.3-4.3c0-2.7-1.8-3.9-5.8-4.5l-6.4-1.1
		c-8.6-1.4-13.3-4.6-13.3-12c0-7.7,6.5-12.9,16.7-12.9c11.1,0,17.8,5,18.5,13.9l-9,0.4c-0.7-4.6-3.8-6.8-9.6-6.8
		c-3.9,0-6.5,1.7-6.5,4.5c0,2.2,1.5,3.5,4.4,3.9l7.7,1.3c8.5,1.4,13.5,4.9,13.5,12.5c0,8.2-7.1,12.8-17.5,12.8
		c-10.5,0-18.5-4.6-19.2-14.4L251.2,308.1z"/>
	<path class="st1" d="M322.4,308.7c-2.1,8.9-9,14.2-19.3,14.2c-12.4,0-21.3-7.9-21.3-20.6c0-12.7,9-21.8,21.1-21.8
		c13.1,0,19.9,9.1,19.9,20.1v3.9h-30.2c0.4,5.9,5,10.1,10.9,10.1c5.4,0,8.6-2.3,10.1-6.8L322.4,308.7z M312,297.6
		c-0.4-4.7-3.2-9.1-9.3-9.1c-6,0-9,4.1-10,9.1H312z"/>
	<path class="st1" d="M355.6,322.9c-16.8,0-29.2-12.1-29.2-29.8c0-17.7,12.4-29.8,29.2-29.8c16.7,0,29.1,12.1,29.1,29.8
		C384.7,310.8,372.3,322.9,355.6,322.9 M355.6,273.3c-10.6,0-17.3,7.7-17.3,19.8c0,12,6.7,19.8,17.3,19.8c10.6,0,17.3-7.8,17.3-19.8
		C373,281,366.2,273.3,355.6,273.3"/>
	<path class="st1" d="M402.1,321.8h-10.9v-40.2h10.9v6.6c2-4.6,7.1-7.7,13.1-7.7c10.8,0,14.7,7.3,14.7,16.2v25.1h-10.9v-22.9
		c0-6.2-2.5-9.8-7.8-9.8c-5.6,0-9,4.4-9,11.1V321.8z"/>
	<rect x="437.4" y="264.4" class="st1" width="10.9" height="57.4"/>
	<polygon class="st1" points="462.2,336.7 468.4,322 451.7,281.6 463.2,281.6 474.1,309 474.5,309 485.3,281.6 496,281.6 
		472.9,336.7 	"/>
	<path class="st1" d="M511.3,285.8h-12v-10.5c0-7.6,3.4-11.2,12-11.4v5.6c-3.9,0.2-5.5,1.4-5.6,5.2h5.6V285.8z M527.5,285.8h-11.9
		v-10.5c0-7.6,3.4-11.2,11.9-11.4v5.6c-3.8,0.2-5.5,1.4-5.5,5.2h5.5V285.8z"/>
</g>
</svg>
