<?xml version="1.0" encoding="utf-8"?>
<!-- Generator: Adobe Illustrator 21.0.0, SVG Export Plug-In . SVG Version: 6.00 Build 0)  -->
<svg version="1.1" id="Layer_1" xmlns="http://www.w3.org/2000/svg" xmlns:xlink="http://www.w3.org/1999/xlink" x="0px" y="0px"
	 viewBox="0 0 600 600" style="enable-background:new 0 0 600 600;" xml:space="preserve">
<style type="text/css">
	.st0{fill:#FFFFFF;}
	.st1{fill:#333333;}
	.st2{fill:#EE3424;}
	.st3{fill:#93C059;}
	.st4{fill:#FCCD3D;}
</style>
<rect class="st0" width="600" height="600"/>
<g>
	<g>
		<path class="st1" d="M79.3,290.8c-4.5,0-6.8-1-6.8-3.1v-78.8c0-2.1,2.3-3.1,6.8-3.1s6.8,1,6.8,3.1v78.8
			C86.1,289.7,83.8,290.8,79.3,290.8z"/>
		<path class="st1" d="M108.1,290.8c-1.8,0-2.8-0.1-3.1-0.2c-1.1-0.3-1.6-1.2-1.6-2.5v-80c0-1.3,0.5-2.1,1.6-2.5
			c0.3-0.2,1.3-0.3,3.1-0.3c1.7,0,2.7,0.1,3.1,0.2c1.1,0.3,1.6,1.2,1.6,2.5v80c0,1.3-0.5,2.1-1.6,2.5
			C110.8,290.7,109.7,290.8,108.1,290.8z"/>
		<path class="st1" d="M164.4,217.5v29.7c0,1,0.6,1.5,1.9,1.5c0.2,0,0.8,0,1.5,0c0.8,0,1.4,0,2,0c1.9,0,2.8,0.6,2.8,1.9
			c0,1.1-0.9,1.7-2.8,1.7c-0.6,0-1.2,0-2,0s-1.3,0-1.5,0c-1.3,0-1.9,0.7-1.9,2v33.9c0,1.3-0.5,2.1-1.6,2.5c-0.4,0.2-1.5,0.2-3.1,0.2
			c-1.7,0-2.7-0.1-3.1-0.2c-1.1-0.3-1.6-1.2-1.6-2.5v-34c0-1.2-0.7-1.9-2.2-1.9c-1.2,0-2,0-2.2,0c-0.6-0.2-0.9-0.7-0.9-1.6
			s0.3-1.4,0.9-1.6c0.2-0.1,1.1-0.1,2.4-0.1c1.4,0,2-0.5,2-1.6V226c0-5.1,1.2-9.7,3.7-13.7c2.8-4.7,6.5-7,11.1-7
			c2.4,0,4.2,0.6,5.6,1.9c0.5,0.5,0.7,1,0.7,1.4c0,0.9-0.5,1.3-1.5,1.3c-0.5,0-1-0.1-1.5-0.3c-1.3-0.5-2.4-0.8-3.3-0.8
			C166.2,208.9,164.4,211.7,164.4,217.5z"/>
		<path class="st1" d="M179,274.3c0-4.8,1.8-9,5.3-12.4s7.7-5.1,12.7-5.1c4.9,0,9.2,1.7,12.7,5.1s5.3,7.5,5.3,12.4
			c0,4.8-1.8,9-5.3,12.4c-3.5,3.4-7.7,5.1-12.7,5.1c-4.9,0-9.2-1.7-12.7-5.1C180.8,283.2,179,279.1,179,274.3z M189.4,262.9
			c-0.6,2.8-0.9,6.6-0.9,11.3c0,4.8,0.3,8.5,0.9,11.3c1.2,2.1,3.7,3.1,7.4,3.1c4.4,0,7.9-1.4,10.6-4.1c2.7-2.7,4-6.1,4-10.2
			s-1.3-7.6-4-10.3c-2.6-2.8-6.2-4.2-10.6-4.2C193.1,259.9,190.6,260.9,189.4,262.9z"/>
		<path class="st1" d="M250.5,265.3c0-1.5-0.6-2.8-1.7-3.9c-1.1-1.1-2.6-1.7-4.4-1.7c-1.7,0-3.4,0.8-5.1,2.5
			c-1.7,1.7-2.5,3.1-2.5,4.5v21.4c0,1.3-0.5,2.1-1.6,2.5c-0.4,0.2-1.5,0.2-3.1,0.2c-1.8,0-2.8-0.1-3.1-0.2c-1.1-0.3-1.6-1.2-1.6-2.5
			v-28.6c0-1.3,0.5-2.2,1.6-2.5c0.3-0.2,1.4-0.2,3.1-0.2c1.6,0,2.7,0.1,3.1,0.3c1.1,0.3,1.6,1.2,1.6,2.6c2.8-2.1,5.5-3.1,8-3.1
			c3,0,5.4,1,7.4,3.1c1.6,1.7,2.4,3.5,2.2,5.3c-0.2,2.5-1.4,4.7-3.3,6.7c-2,2-4.2,2.9-6.7,2.5c-1.5-0.2-2.2-0.6-2.2-1.4
			c0-1.2,0.7-1.7,2.1-1.7c1.7,0,3.2-0.5,4.5-1.6C249.9,268.4,250.5,267,250.5,265.3z"/>
		<path class="st1" d="M301,267.8v20.3c0,1.3-0.5,2.1-1.6,2.5c-0.4,0.2-1.5,0.2-3.1,0.2c-1.8,0-2.8-0.1-3.1-0.2
			c-1.1-0.3-1.6-1.2-1.6-2.5v-24.2c0-1.8-0.6-3-1.7-3.5c-0.6-0.2-1.7-0.4-3.5-0.4c-1.8,0-3.8,0.8-6,2.4c-2.2,1.6-3.3,3-3.3,4.2V288
			c0,1.3-0.5,2.1-1.6,2.5c-0.4,0.2-1.5,0.2-3.1,0.2c-1.8,0-2.8-0.1-3.1-0.2c-1.1-0.3-1.6-1.2-1.6-2.5v-28.5c0-1.3,0.5-2.2,1.6-2.5
			c0.3-0.2,1.4-0.2,3.1-0.2c1.6,0,2.7,0.1,3.1,0.3c1.1,0.3,1.6,1.2,1.6,2.6c0,0.8,0.1,1.2,0.2,1.2c0.2,0,0.7-0.3,1.6-0.9
			c3.5-2.2,6.8-3.3,9.9-3.3c3.3,0,6.2,1.1,8.7,3.3C299.7,262,301,264.6,301,267.8z"/>
		<path class="st1" d="M313.7,274.3c0-4.8,1.8-9,5.3-12.4s7.7-5.1,12.7-5.1c4.9,0,9.2,1.7,12.7,5.1s5.3,7.5,5.3,12.4
			c0,4.8-1.8,9-5.3,12.4c-3.5,3.4-7.7,5.1-12.7,5.1c-4.9,0-9.2-1.7-12.7-5.1C315.5,283.2,313.7,279.1,313.7,274.3z M324.1,262.9
			c-0.6,2.8-0.9,6.6-0.9,11.3c0,4.8,0.3,8.5,0.9,11.3c1.2,2.1,3.7,3.1,7.4,3.1c4.4,0,7.9-1.4,10.6-4.1c2.7-2.7,4-6.1,4-10.2
			s-1.3-7.6-4-10.3c-2.6-2.8-6.2-4.2-10.6-4.2C327.8,259.9,325.3,260.9,324.1,262.9z"/>
		<path class="st1" d="M98.4,392.3c0-0.9-0.2-1.2-0.7-0.7c-2.1,1.7-4.9,2.6-8.2,2.6c-5,0-9.2-1.9-12.4-5.6c-3-3.5-4.5-7.7-4.5-12.7
			c0-4.4,1.5-8.1,4.4-11.3s6.5-4.8,10.7-4.8c3.4,0,6.3,0.6,8.8,1.9c1.2,0.6,1.9,0,1.9-1.6v-49.2c0-1.3,0.5-2.1,1.6-2.5
			c0.4-0.2,1.4-0.2,3.1-0.2c1.7,0,2.8,0.1,3.1,0.2c1.1,0.3,1.6,1.2,1.6,2.5v80.2c0,1.3-0.5,2.1-1.6,2.5c-0.3,0.2-1.4,0.2-3.1,0.2
			C99.9,393.7,98.4,393.2,98.4,392.3z M88,362.6c-3.1,0-5.8,1.3-8.2,3.8c-2.4,2.6-3.6,5.7-3.6,9.5c0,4.3,1.2,7.9,3.5,10.8
			c2.4,2.9,5.5,4.4,9.3,4.4c4.9,0,8-1.7,9.4-5.2v-18.4C96.6,364.3,93.2,362.6,88,362.6z"/>
		<path class="st1" d="M133.8,380.6c-0.7,0-1.3,0-2,0c-1-0.1-1.9,0.1-2.8,0.7c-0.8,0.5-1.2,1.3-1.1,2.3c0.2,2.2,0.4,4,0.8,5.4
			c0.8,1.3,1.8,2,3.1,2.4c0.6,0.2,2,0.2,4.3,0.2c2.8,0,5.8-0.9,8.8-2.8c0.4-0.3,0.8-0.4,1.1-0.4c0.7,0,1,0.4,1,1.1
			c0,0.6-0.2,1.1-0.6,1.5c-2.7,2.4-6.1,3.7-10.1,3.7c-5,0-9.3-1.6-12.7-4.9c-3.4-3.3-5.1-7.3-5.1-12.2c0-5,1.8-9.4,5.5-12.9
			c3.7-3.6,8.4-5.3,14.3-5.3c2.7,0,5.2,0.8,7.5,2.4c2.5,1.8,3.7,4.1,3.7,6.8c0,4-1.4,7-4.2,9C142.5,379.5,138.6,380.6,133.8,380.6z
			 M134.4,378c2.9,0,5.5-0.8,7.8-2.4c2.3-1.6,3.5-3.7,3.5-6.3c0-4.4-2.9-6.6-8.6-6.6c-4.2,0-6.9,1.2-8.3,3.5
			c-0.5,2.2-0.8,5.1-0.9,8.7c-0.1,1,0.7,1.8,2.5,2.4C131.8,377.7,133.1,378,134.4,378z"/>
		<path class="st1" d="M166.9,393.7c-1.8,0-2.8-0.1-3.1-0.2c-1.1-0.3-1.6-1.2-1.6-2.5v-80c0-1.3,0.5-2.1,1.6-2.5
			c0.3-0.2,1.4-0.2,3.1-0.2c1.7,0,2.7,0.1,3.1,0.2c1.1,0.3,1.6,1.2,1.6,2.5v80c0,1.3-0.5,2.1-1.6,2.5
			C169.7,393.6,168.6,393.7,166.9,393.7z"/>
		<path class="st1" d="M189.5,393.7c-1.8,0-2.8-0.1-3.1-0.2c-1.1-0.3-1.6-1.2-1.6-2.5v-80c0-1.3,0.5-2.1,1.6-2.5
			c0.3-0.2,1.4-0.2,3.1-0.2s2.7,0.1,3.1,0.2c1.1,0.3,1.6,1.2,1.6,2.5v80c0,1.3-0.5,2.1-1.6,2.5C192.2,393.6,191.1,393.7,189.5,393.7
			z"/>
		<path class="st1" d="M220,380.6c-0.7,0-1.3,0-2,0c-1-0.1-1.9,0.1-2.8,0.7c-0.8,0.5-1.2,1.3-1.1,2.3c0.2,2.2,0.4,4,0.8,5.4
			c0.8,1.3,1.8,2,3.1,2.4c0.6,0.2,2,0.2,4.3,0.2c2.8,0,5.8-0.9,8.8-2.8c0.4-0.3,0.8-0.4,1.1-0.4c0.7,0,1,0.4,1,1.1
			c0,0.6-0.2,1.1-0.6,1.5c-2.7,2.4-6.1,3.7-10.1,3.7c-5,0-9.3-1.6-12.7-4.9s-5.1-7.3-5.1-12.2c0-5,1.8-9.4,5.5-12.9
			c3.7-3.6,8.4-5.3,14.3-5.3c2.7,0,5.2,0.8,7.5,2.4c2.5,1.8,3.7,4.1,3.7,6.8c0,4-1.4,7-4.2,9C228.7,379.5,224.9,380.6,220,380.6z
			 M220.6,378c2.9,0,5.5-0.8,7.8-2.4s3.5-3.7,3.5-6.3c0-4.4-2.9-6.6-8.6-6.6c-4.2,0-6.9,1.2-8.3,3.5c-0.5,2.2-0.8,5.1-0.9,8.7
			c-0.1,1,0.7,1.8,2.5,2.4C218,377.7,219.4,378,220.6,378z"/>
		<path class="st1" d="M278.1,393.7c-1.7,0-2.8-0.1-3.1-0.2c-1.1-0.3-1.6-1.2-1.6-2.5v-28.2c0-1.3,0.5-2.1,1.6-2.5
			c0.3-0.2,1.4-0.2,3.1-0.2c1.6,0,2.7,0.1,3.1,0.2c1.1,0.3,1.6,1.2,1.6,2.5V391c0,1.3-0.5,2.1-1.6,2.5
			C280.8,393.6,279.7,393.7,278.1,393.7z M273.8,346.7c0-1.3,0.5-2.4,1.4-3.3c0.9-0.9,2-1.4,3.2-1.4c1.3,0,2.4,0.5,3.3,1.4
			c0.9,0.9,1.4,2,1.4,3.3c0,1.3-0.5,2.4-1.4,3.3c-0.9,0.9-2,1.4-3.3,1.4c-1.2,0-2.3-0.5-3.2-1.4C274.2,349.1,273.8,348,273.8,346.7z
			"/>
		<path class="st1" d="M322.1,392.3c0-0.9-0.2-1.2-0.7-0.7c-2.1,1.7-4.9,2.6-8.2,2.6c-5,0-9.2-1.9-12.4-5.6c-3-3.5-4.5-7.7-4.5-12.7
			c0-4.4,1.5-8.1,4.4-11.3s6.5-4.8,10.7-4.8c3.4,0,6.3,0.6,8.8,1.9c1.2,0.6,1.9,0,1.9-1.6v-49.2c0-1.3,0.5-2.1,1.6-2.5
			c0.4-0.2,1.4-0.2,3.1-0.2s2.8,0.1,3.1,0.2c1.1,0.3,1.6,1.2,1.6,2.5v80.2c0,1.3-0.5,2.1-1.6,2.5c-0.3,0.2-1.4,0.2-3.1,0.2
			C323.7,393.7,322.1,393.2,322.1,392.3z M311.7,362.6c-3.1,0-5.8,1.3-8.2,3.8c-2.4,2.6-3.6,5.7-3.6,9.5c0,4.3,1.2,7.9,3.5,10.8
			c2.4,2.9,5.5,4.4,9.3,4.4c4.9,0,8-1.7,9.4-5.2v-18.4C320.4,364.3,316.9,362.6,311.7,362.6z"/>
		<path class="st1" d="M357.6,380.6c-0.7,0-1.3,0-2,0c-1-0.1-1.9,0.1-2.8,0.7c-0.8,0.5-1.2,1.3-1.1,2.3c0.2,2.2,0.4,4,0.8,5.4
			c0.8,1.3,1.8,2,3.1,2.4c0.6,0.2,2,0.2,4.3,0.2c2.8,0,5.8-0.9,8.8-2.8c0.4-0.3,0.8-0.4,1.1-0.4c0.7,0,1,0.4,1,1.1
			c0,0.6-0.2,1.1-0.6,1.5c-2.7,2.4-6.1,3.7-10.1,3.7c-5,0-9.3-1.6-12.7-4.9c-3.4-3.3-5.1-7.3-5.1-12.2c0-5,1.8-9.4,5.5-12.9
			c3.7-3.6,8.4-5.3,14.3-5.3c2.7,0,5.2,0.8,7.5,2.4c2.5,1.8,3.7,4.1,3.7,6.8c0,4-1.4,7-4.2,9C366.2,379.5,362.4,380.6,357.6,380.6z
			 M358.2,378c2.9,0,5.5-0.8,7.8-2.4s3.5-3.7,3.5-6.3c0-4.4-2.9-6.6-8.6-6.6c-4.2,0-6.9,1.2-8.3,3.5c-0.5,2.2-0.8,5.1-0.9,8.7
			c-0.1,1,0.7,1.8,2.5,2.4C355.6,377.7,356.9,378,358.2,378z"/>
		<path class="st1" d="M398.8,380.6c-0.7,0-1.3,0-2,0c-1-0.1-1.9,0.1-2.8,0.7c-0.8,0.5-1.2,1.3-1.1,2.3c0.2,2.2,0.4,4,0.8,5.4
			c0.8,1.3,1.8,2,3.1,2.4c0.6,0.2,2,0.2,4.3,0.2c2.8,0,5.8-0.9,8.8-2.8c0.4-0.3,0.8-0.4,1.1-0.4c0.7,0,1,0.4,1,1.1
			c0,0.6-0.2,1.1-0.6,1.5c-2.7,2.4-6.1,3.7-10.1,3.7c-5,0-9.3-1.6-12.7-4.9c-3.4-3.3-5.1-7.3-5.1-12.2c0-5,1.8-9.4,5.5-12.9
			c3.7-3.6,8.4-5.3,14.3-5.3c2.7,0,5.2,0.8,7.5,2.4c2.5,1.8,3.7,4.1,3.7,6.8c0,4-1.4,7-4.2,9C407.4,379.5,403.6,380.6,398.8,380.6z
			 M399.3,378c2.9,0,5.5-0.8,7.8-2.4s3.5-3.7,3.5-6.3c0-4.4-2.9-6.6-8.6-6.6c-4.2,0-6.9,1.2-8.3,3.5c-0.5,2.2-0.8,5.1-0.9,8.7
			c-0.1,1,0.7,1.8,2.5,2.4C396.8,377.7,398.1,378,399.3,378z"/>
	</g>
	<path class="st2" d="M472.3,285.3l1.7-13.2l-11.5-5.2l-2.7-10.1l7.3-10.3l-8.1-10.6l-11.7,4.4l-9-5.2l-2.1-12.4L423,221l-5.2,11.5
		l-10.1,2.7l-10.3-7.3l-10.6,8.1l4.4,11.8l-5.2,9l-12.5,2l-1.7,13.2l11.5,5.2l2.7,10.1l-7.3,10.3l8.1,10.6l11.8-4.4l9,5.2l2.1,12.4
		l13.2,1.7l5.2-11.5l10.1-2.7l10.3,7.4l10.6-8.1l-4.4-11.8l5.2-9L472.3,285.3z M422.9,298.9c-14.8,0-26.9-12-26.9-26.9
		c0-14.8,12-26.9,26.9-26.9c14.8,0,26.9,12,26.9,26.9S437.8,298.9,422.9,298.9z"/>
	<path class="st3" d="M523.6,326.1l3.4-7.6l-6.6-5.3l0.2-6.3l6.9-4.9l-3-7.8l-8.4,1l-4.3-4.6l1.4-8.3l-7.6-3.4l-5.3,6.6l-6.3-0.2
		l-4.9-6.9l-7.8,3l1,8.4l-4.6,4.3l-8.3-1.4l-3.4,7.6l6.6,5.3l-0.2,6.3l-6.9,4.9l3,7.8l8.4-1l4.3,4.6l-1.4,8.3l7.6,3.4l5.3-6.6
		l6.3,0.2l4.9,6.9l7.7-3l-1-8.4l4.6-4.3L523.6,326.1z M492.8,322.1c-7-2.1-10.9-9.4-8.8-16.4s9.4-10.9,16.4-8.8s10.9,9.4,8.8,16.4
		C507.1,320.2,499.8,324.1,492.8,322.1z"/>
	<path class="st4" d="M510.7,263.3l2.3-5.1l-4.5-3.5l0.1-4.2l4.6-3.3l-2-5.2l-5.6,0.6l-2.9-3.1l1-5.6l-5.1-2.3l-3.5,4.4l-4.2-0.1
		l-3.3-4.6l-5.2,2l0.6,5.6l-3.1,2.9l-5.6-1l-2.3,5.1l4.4,3.5l-0.1,4.2l-4.6,3.3l2,5.2l5.6-0.6l2.9,3.1l-1,5.6l5.1,2.3l3.5-4.4
		l4.2,0.1l3.3,4.6l5.2-2l-0.6-5.6l3.1-2.9L510.7,263.3z M490.2,259.9c-4.3-1.3-6.7-5.8-5.5-10.1c1.3-4.3,5.8-6.7,10.1-5.5
		c4.3,1.3,6.8,5.8,5.5,10.1C499,258.8,494.5,261.2,490.2,259.9z"/>
</g>
</svg>
